<svg width="174" height="50" viewBox="0 0 174 50" fill="none" xmlns="http://www.w3.org/2000/svg">
<path d="M172.115 44.2356C172.115 46.9002 169.911 49.0585 167.186 49.0585H5.89597C3.172 49.0585 0.960938 46.9002 0.960938 44.2356V5.77451C0.960938 3.11121 3.172 0.945312 5.89597 0.945312H167.185C169.911 0.945312 172.114 3.11121 172.114 5.77451L172.115 44.2356Z" fill="white"/>
<path d="M166.667 1.00156C169.635 1.00156 172.05 3.35625 172.05 6.25V43.75C172.05 46.6438 169.635 48.9984 166.667 48.9984H6.41026C3.44231 48.9984 1.02724 46.6438 1.02724 43.75V6.25C1.02724 3.35625 3.44231 1.00156 6.41026 1.00156H166.667ZM166.667 3.8147e-06H6.41026C2.88622 3.8147e-06 0 2.81407 0 6.25V43.75C0 47.1859 2.88622 50 6.41026 50H166.667C170.191 50 173.077 47.1859 173.077 43.75V6.25C173.077 2.81407 170.191 3.8147e-06 166.667 3.8147e-06Z" fill="#A6A6A6"/>
<path d="M38.6262 24.7283C38.589 20.6995 42.0095 18.7395 42.1659 18.6483C40.2287 15.8945 37.2262 15.5183 36.171 15.4883C33.6492 15.2295 31.2031 16.9595 29.9185 16.9595C28.6082 16.9595 26.63 15.5133 24.4979 15.5558C21.7544 15.597 19.1877 17.1458 17.78 19.5508C14.8749 24.4545 17.0415 31.6608 19.8249 35.6245C21.2172 37.5658 22.8441 39.7333 24.9736 39.657C27.0569 39.5733 27.8351 38.362 30.3492 38.362C32.8403 38.362 33.571 39.657 35.7428 39.6083C37.9787 39.5733 39.3864 37.6583 40.73 35.6995C42.339 33.4745 42.9851 31.2833 43.0108 31.1708C42.9582 31.1533 38.6685 29.557 38.6262 24.7283Z" fill="black"/>
<path d="M34.5236 12.8808C35.6441 11.5145 36.4108 9.65578 36.1979 7.76953C34.5762 7.83953 32.5479 8.86328 31.38 10.1995C30.3467 11.377 29.4236 13.307 29.6621 15.122C31.4838 15.2545 33.3544 14.2258 34.5236 12.8808Z" fill="black"/>
<path d="M62.8839 12.5123C62.8839 13.9836 62.4313 15.0911 61.5275 15.8348C60.6903 16.5211 59.5006 16.8648 57.9595 16.8648C57.1954 16.8648 56.5416 16.8323 55.9941 16.7673V8.72859C56.7082 8.61609 57.4775 8.55859 58.3082 8.55859C59.7762 8.55859 60.8826 8.86984 61.6288 9.49234C62.4647 10.1961 62.8839 11.2023 62.8839 12.5123ZM61.4672 12.5486C61.4672 11.5948 61.2082 10.8636 60.6903 10.3536C60.1724 9.84484 59.4159 9.58984 58.4198 9.58984C57.9967 9.58984 57.6364 9.61734 57.3377 9.67484V15.7861C57.5031 15.8111 57.8057 15.8223 58.2454 15.8223C59.2736 15.8223 60.0672 15.5436 60.6262 14.9861C61.1852 14.4286 61.4672 13.6161 61.4672 12.5486Z" fill="black"/>
<path d="M70.3958 13.7948C70.3958 14.7011 70.1304 15.4436 69.5996 16.0261C69.0432 16.6248 68.3061 16.9236 67.3855 16.9236C66.4984 16.9236 65.792 16.6373 65.265 16.0623C64.7394 15.4886 64.4766 14.7648 64.4766 13.8923C64.4766 12.9798 64.7471 12.2311 65.2907 11.6498C65.8343 11.0686 66.565 10.7773 67.4855 10.7773C68.3727 10.7773 69.0855 11.0636 69.6253 11.6373C70.1381 12.1948 70.3958 12.9148 70.3958 13.7948ZM69.0022 13.8373C69.0022 13.2936 68.8817 12.8273 68.642 12.4386C68.3599 11.9686 67.9586 11.7336 67.4368 11.7336C66.8971 11.7336 66.4868 11.9686 66.2048 12.4386C65.9637 12.8273 65.8445 13.3011 65.8445 13.8611C65.8445 14.4048 65.965 14.8711 66.2048 15.2598C66.4958 15.7298 66.9009 15.9648 67.424 15.9648C67.9368 15.9648 68.3394 15.7261 68.6291 15.2473C68.8778 14.8511 69.0022 14.3811 69.0022 13.8373Z" fill="black"/>
<path d="M80.4673 10.8984L78.5763 16.7909H77.3455L76.5622 14.2322C76.3635 13.5934 76.202 12.9584 76.0763 12.3284H76.052C75.9353 12.9759 75.7738 13.6097 75.5661 14.2322L74.734 16.7909H73.4891L71.7109 10.8984H73.0917L73.775 13.6997C73.9404 14.3622 74.0763 14.9934 74.1853 15.5909H74.2097C74.3097 15.0984 74.475 14.4709 74.7084 13.7122L75.5661 10.8997H76.6609L77.4827 13.6522C77.6814 14.3234 77.843 14.9697 77.9673 15.5922H78.0045C78.0955 14.9859 78.2327 14.3397 78.4148 13.6522L79.1481 10.8997H80.4673V10.8984Z" fill="black"/>
<path d="M87.4322 16.7897H86.0886V13.4147C86.0886 12.3747 85.6835 11.8547 84.8706 11.8547C84.4719 11.8547 84.1501 11.9972 83.9001 12.2834C83.6527 12.5697 83.5271 12.9072 83.5271 13.2934V16.7884H82.1835V12.5809C82.1835 12.0634 82.1668 11.5022 82.1348 10.8947H83.3155L83.3784 11.8159H83.4155C83.5719 11.5297 83.8053 11.2934 84.1117 11.1047C84.4758 10.8847 84.8835 10.7734 85.3296 10.7734C85.8937 10.7734 86.363 10.9509 86.736 11.3072C87.2001 11.7434 87.4322 12.3947 87.4322 13.2597V16.7897V16.7897Z" fill="black"/>
<path d="M91.1372 16.7916H89.7949V8.19531H91.1372V16.7916Z" fill="black"/>
<path d="M99.0481 13.7948C99.0481 14.7011 98.7828 15.4436 98.252 16.0261C97.6956 16.6248 96.9571 16.9236 96.0379 16.9236C95.1494 16.9236 94.443 16.6373 93.9174 16.0623C93.3917 15.4886 93.1289 14.7648 93.1289 13.8923C93.1289 12.9798 93.3994 12.2311 93.943 11.6498C94.4866 11.0686 95.2174 10.7773 96.1366 10.7773C97.0251 10.7773 97.7366 11.0636 98.2776 11.6373C98.7904 12.1948 99.0481 12.9148 99.0481 13.7948ZM97.6533 13.8373C97.6533 13.2936 97.5328 12.8273 97.293 12.4386C97.0122 11.9686 96.6097 11.7336 96.0892 11.7336C95.5481 11.7336 95.1379 11.9686 94.8571 12.4386C94.6161 12.8273 94.4969 13.3011 94.4969 13.8611C94.4969 14.4048 94.6174 14.8711 94.8571 15.2598C95.1481 15.7298 95.5533 15.9648 96.0763 15.9648C96.5892 15.9648 96.9904 15.7261 97.2802 15.2473C97.5302 14.8511 97.6533 14.3811 97.6533 13.8373Z" fill="black"/>
<path d="M105.551 16.7898H104.345L104.245 16.1111H104.208C103.795 16.6523 103.207 16.9236 102.442 16.9236C101.872 16.9236 101.41 16.7448 101.063 16.3898C100.748 16.0673 100.59 15.6661 100.59 15.1898C100.59 14.4698 100.898 13.9211 101.517 13.5411C102.135 13.1611 103.004 12.9748 104.123 12.9836V12.8736C104.123 12.0973 103.705 11.7098 102.868 11.7098C102.272 11.7098 101.746 11.8561 101.292 12.1461L101.019 11.2861C101.581 10.9473 102.274 10.7773 103.092 10.7773C104.672 10.7773 105.464 11.5898 105.464 13.2148V15.3848C105.464 15.9736 105.494 16.4423 105.551 16.7898ZM104.157 14.7648V13.8561C102.674 13.8311 101.933 14.2273 101.933 15.0436C101.933 15.3511 102.018 15.5811 102.191 15.7348C102.364 15.8886 102.585 15.9648 102.848 15.9648C103.142 15.9648 103.418 15.8736 103.669 15.6923C103.922 15.5098 104.077 15.2786 104.135 14.9948C104.149 14.9311 104.157 14.8536 104.157 14.7648Z" fill="black"/>
<path d="M113.185 16.7916H111.993L111.93 15.8453H111.893C111.512 16.5653 110.863 16.9253 109.952 16.9253C109.224 16.9253 108.617 16.6466 108.137 16.0891C107.656 15.5316 107.416 14.8078 107.416 13.9191C107.416 12.9653 107.676 12.1928 108.199 11.6028C108.706 11.0528 109.326 10.7778 110.065 10.7778C110.876 10.7778 111.444 11.0441 111.767 11.5778H111.793V8.19531H113.138V15.2041C113.138 15.7778 113.153 16.3066 113.185 16.7916ZM111.793 14.3066V13.3241C111.793 13.1541 111.78 13.0166 111.756 12.9116C111.68 12.5966 111.517 12.3316 111.27 12.1178C111.02 11.9041 110.719 11.7966 110.371 11.7966C109.87 11.7966 109.478 11.9903 109.189 12.3791C108.903 12.7678 108.758 13.2641 108.758 13.8703C108.758 14.4528 108.895 14.9253 109.171 15.2891C109.462 15.6766 109.854 15.8703 110.345 15.8703C110.787 15.8703 111.139 15.7091 111.407 15.3853C111.666 15.0866 111.793 14.7266 111.793 14.3066Z" fill="black"/>
<path d="M124.677 13.7948C124.677 14.7011 124.412 15.4436 123.881 16.0261C123.324 16.6248 122.589 16.9236 121.667 16.9236C120.781 16.9236 120.074 16.6373 119.546 16.0623C119.021 15.4886 118.758 14.7648 118.758 13.8923C118.758 12.9798 119.028 12.2311 119.572 11.6498C120.116 11.0686 120.846 10.7773 121.768 10.7773C122.654 10.7773 123.368 11.0636 123.907 11.6373C124.419 12.1948 124.677 12.9148 124.677 13.7948ZM123.285 13.8373C123.285 13.2936 123.164 12.8273 122.924 12.4386C122.641 11.9686 122.241 11.7336 121.718 11.7336C121.18 11.7336 120.769 11.9686 120.486 12.4386C120.245 12.8273 120.126 13.3011 120.126 13.8611C120.126 14.4048 120.246 14.8711 120.486 15.2598C120.777 15.7298 121.182 15.9648 121.705 15.9648C122.218 15.9648 122.622 15.7261 122.912 15.2473C123.159 14.8511 123.285 14.3811 123.285 13.8373Z" fill="black"/>
<path d="M131.9 16.7897H130.557V13.4147C130.557 12.3747 130.152 11.8547 129.338 11.8547C128.939 11.8547 128.618 11.9972 128.369 12.2834C128.12 12.5697 127.996 12.9072 127.996 13.2934V16.7884H126.651V12.5809C126.651 12.0634 126.636 11.5022 126.604 10.8947H127.783L127.846 11.8159H127.883C128.041 11.5297 128.274 11.2934 128.579 11.1047C128.945 10.8847 129.351 10.7734 129.798 10.7734C130.361 10.7734 130.83 10.9509 131.203 11.3072C131.669 11.7434 131.9 12.3947 131.9 13.2597V16.7897V16.7897Z" fill="black"/>
<path d="M140.942 11.8784H139.463V14.7409C139.463 15.4684 139.726 15.8322 140.246 15.8322C140.487 15.8322 140.687 15.8122 140.845 15.7709L140.88 16.7647C140.614 16.8622 140.266 16.9109 139.836 16.9109C139.305 16.9109 138.892 16.7534 138.594 16.4384C138.294 16.1234 138.145 15.5934 138.145 14.8497V11.8784H137.262V10.8972H138.145V9.81719L139.462 9.42969V10.8959H140.941V11.8784H140.942Z" fill="black"/>
<path d="M148.055 16.7916H146.711V13.4416C146.711 12.3853 146.305 11.8566 145.494 11.8566C144.871 11.8566 144.445 12.1628 144.212 12.7753C144.172 12.9041 144.149 13.0616 144.149 13.2466V16.7903H142.807V8.19531H144.149V11.7466H144.175C144.598 11.1003 145.204 10.7778 145.99 10.7778C146.546 10.7778 147.007 10.9553 147.372 11.3116C147.827 11.7553 148.055 12.4153 148.055 13.2878V16.7916V16.7916Z" fill="black"/>
<path d="M155.393 13.5683C155.393 13.8033 155.375 14.0008 155.343 14.162H151.313C151.331 14.7445 151.523 15.1883 151.896 15.4958C152.237 15.7708 152.677 15.9083 153.216 15.9083C153.812 15.9083 154.355 15.8158 154.845 15.6295L155.055 16.5395C154.482 16.782 153.808 16.9033 153.027 16.9033C152.091 16.9033 151.354 16.6345 150.821 16.097C150.285 15.5595 150.02 14.8383 150.02 13.9333C150.02 13.0445 150.267 12.3045 150.766 11.7145C151.286 11.0845 151.99 10.7695 152.879 10.7695C153.748 10.7695 154.408 11.0845 154.854 11.7145C155.214 12.2145 155.393 12.8333 155.393 13.5683ZM154.111 13.2295C154.121 12.8408 154.032 12.5058 153.85 12.2233C153.617 11.8595 153.262 11.677 152.781 11.677C152.343 11.677 151.985 11.8545 151.712 12.2108C151.489 12.4945 151.357 12.8333 151.313 13.2295H154.111Z" fill="black"/>
<path d="M68.7749 39.3772H65.8634L64.2685 34.4909H58.7249L57.2057 39.3772H54.3711L59.8634 22.7422H63.2557L68.7749 39.3772ZM63.7878 32.4409L62.3455 28.0972C62.1929 27.6534 61.907 26.6084 61.4852 24.9634H61.4339C61.266 25.6709 60.9954 26.7159 60.6237 28.0972L59.207 32.4409H63.7878V32.4409Z" fill="black"/>
<path d="M82.9002 33.233C82.9002 35.273 82.3348 36.8855 81.204 38.0692C80.1912 39.123 78.9335 39.6492 77.4322 39.6492C75.8117 39.6492 74.6476 39.0817 73.9386 37.9467H73.8873V44.2655H71.154V31.3317C71.154 30.0492 71.1194 28.733 71.0527 27.383H73.4566L73.6091 29.2842H73.6604C74.572 27.8517 75.9553 27.1367 77.8117 27.1367C79.263 27.1367 80.4745 27.6955 81.4438 28.8142C82.4156 29.9342 82.9002 31.4067 82.9002 33.233ZM80.1156 33.3305C80.1156 32.163 79.8463 31.2005 79.3053 30.443C78.7143 29.653 77.9207 29.258 76.9258 29.258C76.2514 29.258 75.6386 29.478 75.0912 29.9117C74.5425 30.3492 74.1835 30.9205 74.0156 31.628C73.9309 31.958 73.8886 32.228 73.8886 32.4405V34.4405C73.8886 35.313 74.163 36.0492 74.7117 36.6505C75.2604 37.2517 75.9732 37.5517 76.8502 37.5517C77.8797 37.5517 78.6809 37.1642 79.254 36.3917C79.8284 35.618 80.1156 34.598 80.1156 33.3305Z" fill="black"/>
<path d="M97.0493 33.233C97.0493 35.273 96.4839 36.8855 95.3518 38.0692C94.3403 39.123 93.0826 39.6492 91.5813 39.6492C89.9608 39.6492 88.7967 39.0817 88.089 37.9467H88.0377V44.2655H85.3044V31.3317C85.3044 30.0492 85.2698 28.733 85.2031 27.383H87.607L87.7595 29.2842H87.8108C88.7211 27.8517 90.1044 27.1367 91.9621 27.1367C93.4121 27.1367 94.6236 27.6955 95.5954 28.8142C96.5634 29.9342 97.0493 31.4067 97.0493 33.233ZM94.2647 33.3305C94.2647 32.163 93.9941 31.2005 93.4531 30.443C92.8621 29.653 92.0711 29.258 91.0749 29.258C90.3993 29.258 89.7877 29.478 89.239 29.9117C88.6903 30.3492 88.3326 30.9205 88.1647 31.628C88.0813 31.958 88.0377 32.228 88.0377 32.4405V34.4405C88.0377 35.313 88.3121 36.0492 88.8583 36.6505C89.407 37.2505 90.1198 37.5517 90.9993 37.5517C92.0288 37.5517 92.8301 37.1642 93.4031 36.3917C93.9775 35.618 94.2647 34.598 94.2647 33.3305Z" fill="black"/>
<path d="M112.87 34.7138C112.87 36.1288 112.366 37.28 111.354 38.1688C110.243 39.14 108.695 39.625 106.707 39.625C104.871 39.625 103.399 39.28 102.285 38.5888L102.918 36.3675C104.118 37.075 105.435 37.43 106.87 37.43C107.899 37.43 108.701 37.2025 109.276 36.75C109.849 36.2975 110.135 35.69 110.135 34.9325C110.135 34.2575 109.899 33.6888 109.426 33.2275C108.956 32.7663 108.17 32.3375 107.072 31.9413C104.085 30.855 102.593 29.2638 102.593 27.1713C102.593 25.8038 103.116 24.6825 104.163 23.81C105.207 22.9363 106.599 22.5 108.34 22.5C109.893 22.5 111.183 22.7638 112.212 23.29L111.529 25.4625C110.567 24.9525 109.48 24.6975 108.263 24.6975C107.302 24.6975 106.551 24.9288 106.012 25.3888C105.557 25.8 105.329 26.3013 105.329 26.895C105.329 27.5525 105.589 28.0963 106.112 28.5238C106.567 28.9188 107.394 29.3463 108.594 29.8075C110.062 30.3838 111.14 31.0575 111.834 31.83C112.525 32.6 112.87 33.5638 112.87 34.7138Z" fill="black"/>
<path d="M121.906 29.3833H118.894V35.207C118.894 36.6883 119.424 37.4283 120.488 37.4283C120.977 37.4283 121.382 37.387 121.703 37.3045L121.778 39.3283C121.24 39.5245 120.531 39.6233 119.653 39.6233C118.573 39.6233 117.729 39.302 117.12 38.6608C116.514 38.0183 116.209 36.9408 116.209 35.427V29.3808H114.414V27.3808H116.209V25.1845L118.894 24.3945V27.3808H121.906V29.3833Z" fill="black"/>
<path d="M135.501 33.2844C135.501 35.1281 134.96 36.6419 133.881 37.8256C132.749 39.0444 131.246 39.6519 129.373 39.6519C127.568 39.6519 126.131 39.0681 125.059 37.9006C123.987 36.7331 123.451 35.2594 123.451 33.4831C123.451 31.6244 124.002 30.1019 125.109 28.9181C126.213 27.7331 127.702 27.1406 129.576 27.1406C131.381 27.1406 132.833 27.7244 133.929 28.8931C134.978 30.0269 135.501 31.4906 135.501 33.2844ZM132.665 33.3706C132.665 32.2644 132.423 31.3156 131.932 30.5244C131.359 29.5669 130.54 29.0894 129.478 29.0894C128.379 29.0894 127.545 29.5681 126.972 30.5244C126.481 31.3169 126.238 32.2806 126.238 33.4206C126.238 34.5269 126.481 35.4756 126.972 36.2656C127.563 37.2231 128.388 37.7006 129.454 37.7006C130.497 37.7006 131.317 37.2131 131.908 36.2406C132.411 35.4344 132.665 34.4756 132.665 33.3706Z" fill="black"/>
<path d="M144.385 29.7267C144.114 29.678 143.826 29.653 143.523 29.653C142.562 29.653 141.818 30.0067 141.295 30.7155C140.84 31.3405 140.612 32.1305 140.612 33.0842V39.378H137.88L137.905 31.1605C137.905 29.778 137.871 28.5192 137.803 27.3842H140.184L140.284 29.6792H140.359C140.648 28.8905 141.103 28.2555 141.726 27.7792C142.335 27.3505 142.993 27.1367 143.701 27.1367C143.954 27.1367 144.182 27.1542 144.385 27.1855V29.7267Z" fill="black"/>
<path d="M156.609 32.812C156.609 33.2895 156.577 33.692 156.509 34.0208H148.309C148.341 35.2058 148.737 36.112 149.499 36.737C150.19 37.2958 151.083 37.5758 152.181 37.5758C153.395 37.5758 154.503 37.387 155.499 37.0083L155.927 38.8583C154.763 39.3533 153.389 39.5995 151.803 39.5995C149.895 39.5995 148.398 39.052 147.308 37.9583C146.221 36.8645 145.676 35.3958 145.676 33.5533C145.676 31.7445 146.182 30.2383 147.196 29.037C148.258 27.7545 149.692 27.1133 151.498 27.1133C153.271 27.1133 154.613 27.7545 155.524 29.037C156.246 30.0558 156.609 31.3158 156.609 32.812ZM154.003 32.1208C154.021 31.3308 153.842 30.6483 153.472 30.072C152.999 29.3308 152.272 28.9608 151.294 28.9608C150.4 28.9608 149.673 29.322 149.118 30.047C148.663 30.6233 148.392 31.3145 148.309 32.1195H154.003V32.1208Z" fill="black"/>
</svg>
