<svg width="124" height="49" viewBox="0 0 124 49" fill="none" xmlns="http://www.w3.org/2000/svg">
<rect width="124" height="49" rx="22.5371" fill="white"/>
<path d="M1.10396 2.33449C1.10396 1.49309 1.78606 0.810993 2.62746 0.810993H48.1416V47.8486H2.62746C1.78606 47.8486 1.10396 47.1665 1.10396 46.3251V2.33449Z" fill="#BDA6FF" stroke="black" stroke-width="1.62199"/>
<path d="M20.0469 17.2433L22.7415 16.8369V15.7061C22.7415 15.3032 23.0681 14.9766 23.471 14.9766H25.769C26.1719 14.9766 26.4986 15.3032 26.4986 15.7061V16.8369L29.1932 17.2433C29.5273 17.2937 29.7831 17.567 29.8113 17.9038L30.2441 23.0681C30.2798 23.4936 29.9441 23.8586 29.5171 23.8586H19.7229C19.296 23.8586 18.9603 23.4936 18.9959 23.0681L19.4287 17.9038C19.4569 17.567 19.7127 17.2937 20.0469 17.2433Z" stroke="black" stroke-width="0.0364764"/>
<path d="M25.5726 16.8546H23.6758V16.3804C23.6758 16.1186 23.8881 15.9062 24.15 15.9062H25.0984C25.3603 15.9062 25.5726 16.1186 25.5726 16.3804V16.8546Z" stroke="black" stroke-width="0.0364764"/>
<g filter="url(#filter0_d_2982_10310)">
<path d="M10.5781 16.487V11.5991C10.5781 11.3977 10.7414 11.2344 10.9429 11.2344H38.3002C38.5017 11.2344 38.665 11.3977 38.665 11.5991V16.487C38.665 16.6884 38.5017 16.8517 38.3002 16.8517H35.8563V23.8552C35.8563 28.0052 32.4921 31.3694 28.3422 31.3694H20.901V39.3212C16.751 39.3212 13.3868 35.957 13.3868 31.8071V16.8517H10.9429C10.7414 16.8517 10.5781 16.6884 10.5781 16.487Z" fill="white"/>
<path d="M10.5781 16.487V11.5991C10.5781 11.3977 10.7414 11.2344 10.9429 11.2344H38.3002C38.5017 11.2344 38.665 11.3977 38.665 11.5991V16.487C38.665 16.6884 38.5017 16.8517 38.3002 16.8517H35.8563V23.8552C35.8563 28.0052 32.4921 31.3694 28.3422 31.3694H20.901V39.3212C16.751 39.3212 13.3868 35.957 13.3868 31.8071V16.8517H10.9429C10.7414 16.8517 10.5781 16.6884 10.5781 16.487Z" stroke="black" stroke-width="0.911911"/>
</g>
<g filter="url(#filter1_d_2982_10310)">
<path d="M20.0469 18.6457L22.7415 18.2392V17.1084C22.7415 16.7055 23.0681 16.3789 23.471 16.3789H25.769C26.1719 16.3789 26.4986 16.7055 26.4986 17.1084V18.2392L29.1932 18.6457C29.5273 18.6961 29.7831 18.9694 29.8113 19.3061L30.2441 24.4705C30.2798 24.8959 29.9441 25.2609 29.5171 25.2609H19.7229C19.296 25.2609 18.9603 24.8959 18.9959 24.4705L19.4287 19.3061C19.4569 18.9694 19.7127 18.6961 20.0469 18.6457Z" fill="#BDA6FF"/>
<path d="M20.0469 18.6457L22.7415 18.2392V17.1084C22.7415 16.7055 23.0681 16.3789 23.471 16.3789H25.769C26.1719 16.3789 26.4986 16.7055 26.4986 17.1084V18.2392L29.1932 18.6457C29.5273 18.6961 29.7831 18.9694 29.8113 19.3061L30.2441 24.4705C30.2798 24.8959 29.9441 25.2609 29.5171 25.2609H19.7229C19.296 25.2609 18.9603 24.8959 18.9959 24.4705L19.4287 19.3061C19.4569 18.9694 19.7127 18.6961 20.0469 18.6457Z" stroke="black" stroke-width="0.911911"/>
</g>
<path d="M25.5687 18.3664H23.6719V17.3998C23.6719 17.3192 23.7372 17.2539 23.8178 17.2539H25.4227C25.5033 17.2539 25.5687 17.3192 25.5687 17.3998V18.3664Z" fill="#28273C" stroke="black" stroke-width="0.0364764"/>
<path d="M29.3281 24.8041C29.4715 24.613 29.5621 24.3874 29.5909 24.1502L29.6929 23.3086L29.8037 24.6062C29.8128 24.7127 29.7288 24.8041 29.6219 24.8041H29.3281Z" fill="#BDA6FF"/>
<path d="M19.8688 19.9154C19.9777 19.5343 20.2366 19.2138 20.5863 19.0273L20.0926 19.1053C19.9757 19.1238 19.8869 19.22 19.8778 19.3379L19.8203 20.0852L19.8688 19.9154Z" fill="#BDA6FF"/>
<path d="M11.0352 11.6758H14.2086L11.9653 12.6971L11.0352 13.0801V11.6758Z" fill="#BDA6FF"/>
<path d="M28.0312 30.9162C31.5389 30.4275 34.3259 27.7232 34.92 24.2319L35.3995 21.4141L35.4989 23.3168C35.72 27.5498 32.2674 31.0633 28.0312 30.9162Z" fill="#BDA6FF"/>
<mask id="path-12-inside-1_2982_10310" fill="white">
<path d="M41.2695 0H121.513C122.802 0 123.847 1.04515 123.847 2.33442V46.3242C123.847 47.6135 122.802 48.6586 121.513 48.6586H41.2695V0Z"/>
</mask>
<path d="M41.2695 0H121.513C122.802 0 123.847 1.04515 123.847 2.33442V46.3242C123.847 47.6135 122.802 48.6586 121.513 48.6586H41.2695V0Z" fill="#BDA6FF"/>
<path d="M41.2695 -1.62199H121.513C123.698 -1.62199 125.469 0.149356 125.469 2.33442H122.225C122.225 1.94095 121.906 1.62199 121.513 1.62199H41.2695V-1.62199ZM125.469 46.3242C125.469 48.5093 123.698 50.2806 121.513 50.2806H41.2695V47.0366H121.513C121.906 47.0366 122.225 46.7177 122.225 46.3242H125.469ZM41.2695 48.6586V0V48.6586ZM121.513 -1.62199C123.698 -1.62199 125.469 0.149356 125.469 2.33442V46.3242C125.469 48.5093 123.698 50.2806 121.513 50.2806V47.0366C121.906 47.0366 122.225 46.7177 122.225 46.3242V2.33442C122.225 1.94095 121.906 1.62199 121.513 1.62199V-1.62199Z" fill="black" mask="url(#path-12-inside-1_2982_10310)"/>
<g filter="url(#filter2_d_2982_10310)">
<mask id="path-14-outside-2_2982_10310" maskUnits="userSpaceOnUse" x="35" y="18" width="78" height="24" fill="black">
<rect fill="white" x="35" y="18" width="78" height="24"/>
<path d="M42.4764 34.2491C39.0887 34.2491 36.6975 31.6087 36.6975 27.8475C36.6975 24.0862 39.0887 21.4458 42.4764 21.4458C44.0705 21.4458 45.3658 21.9938 46.412 23.1147L46.6611 21.6949H50.5967V34H46.6611L46.412 32.5553C45.3658 33.6762 44.0456 34.2491 42.4764 34.2491ZM41.1811 27.8475C41.1811 29.4416 42.1774 30.5127 43.6471 30.5127C45.1167 30.5127 46.1131 29.4416 46.1131 27.8475C46.1131 26.2533 45.1167 25.1822 43.6471 25.1822C42.1774 25.1822 41.1811 26.2533 41.1811 27.8475ZM59.4307 40.8998C55.0467 40.8998 52.3565 38.4587 52.8049 34.8718H57.1141C57.0643 36.4162 57.8365 37.2133 59.4307 37.2133C60.7758 37.2133 61.6974 36.4909 61.6974 35.4447C61.6974 34.3736 60.9252 33.8007 59.4805 33.8007C55.3207 33.8007 52.6305 31.3347 52.6305 27.5236C52.6305 23.8869 55.4452 21.3213 59.4805 21.3213C60.3025 21.3213 61.1494 21.4707 61.9963 21.8195L63.3414 20.0758L66.6543 22.4422L65.0601 24.3353C65.8074 25.1573 66.2059 26.2284 66.2059 27.5236C66.2059 29.1925 65.359 30.712 63.9641 31.7333C65.5085 32.5553 66.3803 33.9253 66.3803 35.6689C66.3803 38.8573 63.6652 40.8998 59.4307 40.8998ZM57.0892 27.5236C57.0892 29.0182 58.0358 30.0145 59.4556 30.0145C60.8754 30.0145 61.8219 29.0182 61.8219 27.5236C61.8219 26.0291 60.8754 25.0327 59.4556 25.0327C58.0358 25.0327 57.0892 26.0291 57.0892 27.5236ZM73.7343 34.2491C70.3467 34.2491 67.9554 31.6087 67.9554 27.8475C67.9554 24.0862 70.3467 21.4458 73.7343 21.4458C75.3285 21.4458 76.6238 21.9938 77.67 23.1147L77.919 21.6949H81.8547V34H77.919L77.67 32.5553C76.6238 33.6762 75.3036 34.2491 73.7343 34.2491ZM72.4391 27.8475C72.4391 29.4416 73.4354 30.5127 74.9051 30.5127C76.3747 30.5127 77.371 29.4416 77.371 27.8475C77.371 26.2533 76.3747 25.1822 74.9051 25.1822C73.4354 25.1822 72.4391 26.2533 72.4391 27.8475ZM89.6674 34.2491C86.2797 34.2491 83.8885 31.6087 83.8885 27.8475C83.8885 24.0862 86.2797 21.4458 89.6674 21.4458C91.2616 21.4458 92.5568 21.9938 93.603 23.1147L93.8521 21.6949H97.7877V34H93.8521L93.603 32.5553C92.5568 33.6762 91.2366 34.2491 89.6674 34.2491ZM88.3721 27.8475C88.3721 29.4416 89.3685 30.5127 90.8381 30.5127C92.3077 30.5127 93.3041 29.4416 93.3041 27.8475C93.3041 26.2533 92.3077 25.1822 90.8381 25.1822C89.3685 25.1822 88.3721 26.2533 88.3721 27.8475ZM100.469 34V21.6949H104.455L104.754 23.1646C105.551 21.8942 106.721 21.4209 107.892 21.4209C108.913 21.4209 110.159 21.7946 111.056 22.7162L109.212 25.9046C108.515 25.4562 108.017 25.3067 107.369 25.3067C105.974 25.3067 105.003 26.1038 105.003 28.0218V34H100.469Z"/>
</mask>
<path d="M42.4764 34.2491C39.0887 34.2491 36.6975 31.6087 36.6975 27.8475C36.6975 24.0862 39.0887 21.4458 42.4764 21.4458C44.0705 21.4458 45.3658 21.9938 46.412 23.1147L46.6611 21.6949H50.5967V34H46.6611L46.412 32.5553C45.3658 33.6762 44.0456 34.2491 42.4764 34.2491ZM41.1811 27.8475C41.1811 29.4416 42.1774 30.5127 43.6471 30.5127C45.1167 30.5127 46.1131 29.4416 46.1131 27.8475C46.1131 26.2533 45.1167 25.1822 43.6471 25.1822C42.1774 25.1822 41.1811 26.2533 41.1811 27.8475ZM59.4307 40.8998C55.0467 40.8998 52.3565 38.4587 52.8049 34.8718H57.1141C57.0643 36.4162 57.8365 37.2133 59.4307 37.2133C60.7758 37.2133 61.6974 36.4909 61.6974 35.4447C61.6974 34.3736 60.9252 33.8007 59.4805 33.8007C55.3207 33.8007 52.6305 31.3347 52.6305 27.5236C52.6305 23.8869 55.4452 21.3213 59.4805 21.3213C60.3025 21.3213 61.1494 21.4707 61.9963 21.8195L63.3414 20.0758L66.6543 22.4422L65.0601 24.3353C65.8074 25.1573 66.2059 26.2284 66.2059 27.5236C66.2059 29.1925 65.359 30.712 63.9641 31.7333C65.5085 32.5553 66.3803 33.9253 66.3803 35.6689C66.3803 38.8573 63.6652 40.8998 59.4307 40.8998ZM57.0892 27.5236C57.0892 29.0182 58.0358 30.0145 59.4556 30.0145C60.8754 30.0145 61.8219 29.0182 61.8219 27.5236C61.8219 26.0291 60.8754 25.0327 59.4556 25.0327C58.0358 25.0327 57.0892 26.0291 57.0892 27.5236ZM73.7343 34.2491C70.3467 34.2491 67.9554 31.6087 67.9554 27.8475C67.9554 24.0862 70.3467 21.4458 73.7343 21.4458C75.3285 21.4458 76.6238 21.9938 77.67 23.1147L77.919 21.6949H81.8547V34H77.919L77.67 32.5553C76.6238 33.6762 75.3036 34.2491 73.7343 34.2491ZM72.4391 27.8475C72.4391 29.4416 73.4354 30.5127 74.9051 30.5127C76.3747 30.5127 77.371 29.4416 77.371 27.8475C77.371 26.2533 76.3747 25.1822 74.9051 25.1822C73.4354 25.1822 72.4391 26.2533 72.4391 27.8475ZM89.6674 34.2491C86.2797 34.2491 83.8885 31.6087 83.8885 27.8475C83.8885 24.0862 86.2797 21.4458 89.6674 21.4458C91.2616 21.4458 92.5568 21.9938 93.603 23.1147L93.8521 21.6949H97.7877V34H93.8521L93.603 32.5553C92.5568 33.6762 91.2366 34.2491 89.6674 34.2491ZM88.3721 27.8475C88.3721 29.4416 89.3685 30.5127 90.8381 30.5127C92.3077 30.5127 93.3041 29.4416 93.3041 27.8475C93.3041 26.2533 92.3077 25.1822 90.8381 25.1822C89.3685 25.1822 88.3721 26.2533 88.3721 27.8475ZM100.469 34V21.6949H104.455L104.754 23.1646C105.551 21.8942 106.721 21.4209 107.892 21.4209C108.913 21.4209 110.159 21.7946 111.056 22.7162L109.212 25.9046C108.515 25.4562 108.017 25.3067 107.369 25.3067C105.974 25.3067 105.003 26.1038 105.003 28.0218V34H100.469Z" fill="white"/>
<path d="M46.412 23.1147L45.8191 23.6681L46.9296 24.8579L47.2108 23.2549L46.412 23.1147ZM46.6611 21.6949V20.8839H45.98L45.8623 21.5548L46.6611 21.6949ZM50.5967 21.6949H51.4077V20.8839H50.5967V21.6949ZM50.5967 34V34.811H51.4077V34H50.5967ZM46.6611 34L45.8619 34.1378L45.978 34.811H46.6611V34ZM46.412 32.5553L47.2112 32.4175L46.9337 30.8078L45.8191 32.0019L46.412 32.5553ZM42.4764 33.4381C41.005 33.4381 39.7812 32.87 38.9183 31.915C38.0502 30.9543 37.5084 29.5566 37.5084 27.8475H35.8865C35.8865 29.8996 36.5404 31.7027 37.7148 33.0025C38.8944 34.308 40.5601 35.0601 42.4764 35.0601V33.4381ZM37.5084 27.8475C37.5084 26.1383 38.0502 24.7406 38.9183 23.7799C39.7812 22.8249 41.005 22.2568 42.4764 22.2568V20.6348C40.5601 20.6348 38.8944 21.387 37.7148 22.6925C36.5404 23.9922 35.8865 25.7953 35.8865 27.8475H37.5084ZM42.4764 22.2568C43.8566 22.2568 44.9335 22.7193 45.8191 23.6681L47.0049 22.5614C45.7981 21.2684 44.2845 20.6348 42.4764 20.6348V22.2568ZM47.2108 23.2549L47.4599 21.8351L45.8623 21.5548L45.6132 22.9746L47.2108 23.2549ZM46.6611 22.5059H50.5967V20.8839H46.6611V22.5059ZM49.7857 21.6949V34H51.4077V21.6949H49.7857ZM50.5967 33.189H46.6611V34.811H50.5967V33.189ZM47.4603 33.8622L47.2112 32.4175L45.6128 32.6931L45.8619 34.1378L47.4603 33.8622ZM45.8191 32.0019C44.9285 32.9561 43.8241 33.4381 42.4764 33.4381V35.0601C44.2672 35.0601 45.8031 34.3962 47.0049 33.1086L45.8191 32.0019ZM40.3701 27.8475C40.3701 28.8135 40.674 29.688 41.2681 30.3291C41.8671 30.9755 42.7058 31.3237 43.6471 31.3237V29.7017C43.1187 29.7017 42.7245 29.5144 42.4578 29.2267C42.1863 28.9337 41.9921 28.4756 41.9921 27.8475H40.3701ZM43.6471 31.3237C44.5884 31.3237 45.4271 30.9755 46.0261 30.3291C46.6202 29.688 46.9241 28.8135 46.9241 27.8475H45.3021C45.3021 28.4756 45.1078 28.9337 44.8363 29.2267C44.5697 29.5144 44.1754 29.7017 43.6471 29.7017V31.3237ZM46.9241 27.8475C46.9241 26.8814 46.6202 26.0069 46.0261 25.3658C45.4271 24.7194 44.5884 24.3712 43.6471 24.3712V25.9932C44.1755 25.9932 44.5697 26.1805 44.8363 26.4682C45.1078 26.7612 45.3021 27.2193 45.3021 27.8475H46.9241ZM43.6471 24.3712C42.7058 24.3712 41.8671 24.7194 41.2681 25.3658C40.674 26.0069 40.3701 26.8814 40.3701 27.8475H41.9921C41.9921 27.2193 42.1863 26.7612 42.4578 26.4682C42.7245 26.1805 43.1187 25.9932 43.6471 25.9932V24.3712ZM52.8049 34.8718V34.0608H52.0889L52.0001 34.7712L52.8049 34.8718ZM57.1141 34.8718L57.9247 34.898L57.9517 34.0608H57.1141V34.8718ZM61.9963 21.8195L61.6875 22.5694L62.2602 22.8052L62.6384 22.3148L61.9963 21.8195ZM63.3414 20.0758L63.8128 19.4159L63.1767 18.9616L62.6993 19.5805L63.3414 20.0758ZM66.6543 22.4422L67.2746 22.9646L67.8404 22.2928L67.1257 21.7823L66.6543 22.4422ZM65.0601 24.3353L64.4398 23.8129L63.9827 24.3557L64.46 24.8808L65.0601 24.3353ZM63.9641 31.7333L63.485 31.0789L62.4426 31.8421L63.5831 32.4492L63.9641 31.7333ZM59.4307 40.0888C57.3793 40.0888 55.8266 39.5176 54.8512 38.6308C53.8965 37.7629 53.4156 36.5242 53.6096 34.9724L52.0001 34.7712C51.7457 36.8063 52.3858 38.5816 53.7601 39.831C55.1137 41.0615 57.0981 41.7108 59.4307 41.7108V40.0888ZM52.8049 35.6828H57.1141V34.0608H52.8049V35.6828ZM56.3036 34.8457C56.2745 35.7472 56.4814 36.5844 57.0779 37.1905C57.6719 37.7942 58.5108 38.0243 59.4307 38.0243V36.4023C58.7564 36.4023 58.412 36.2338 58.2339 36.0528C58.0583 35.8743 57.904 35.5408 57.9247 34.898L56.3036 34.8457ZM59.4307 38.0243C60.2415 38.0243 60.9963 37.8069 61.5677 37.3604C62.1536 36.9027 62.5084 36.2292 62.5084 35.4447H60.8864C60.8864 35.7064 60.7804 35.9172 60.5692 36.0822C60.3435 36.2585 59.9649 36.4023 59.4307 36.4023V38.0243ZM62.5084 35.4447C62.5084 34.6914 62.2232 34.0216 61.6138 33.5697C61.0441 33.1471 60.2904 32.9897 59.4805 32.9897V34.6117C60.1153 34.6117 60.47 34.7408 60.6476 34.8725C60.7855 34.9748 60.8864 35.127 60.8864 35.4447H62.5084ZM59.4805 32.9897C57.5589 32.9897 56.0566 32.4219 55.0435 31.4935C54.0376 30.5716 53.4415 29.229 53.4415 27.5236H51.8195C51.8195 29.6294 52.5685 31.4253 53.9476 32.6892C55.3196 33.9466 57.2423 34.6117 59.4805 34.6117V32.9897ZM53.4415 27.5236C53.4415 25.9259 54.0545 24.5962 55.0872 23.6593C56.1254 22.7175 57.6345 22.1323 59.4805 22.1323V20.5103C57.2912 20.5103 55.3753 21.2079 53.9974 22.458C52.6138 23.7132 51.8195 25.4847 51.8195 27.5236H53.4415ZM59.4805 22.1323C60.2022 22.1323 60.9436 22.2631 61.6875 22.5694L62.3051 21.0696C61.3552 20.6784 60.4028 20.5103 59.4805 20.5103V22.1323ZM62.6384 22.3148L63.9835 20.5712L62.6993 19.5805L61.3542 21.3241L62.6384 22.3148ZM62.87 20.7358L66.1829 23.1021L67.1257 21.7823L63.8128 19.4159L62.87 20.7358ZM66.034 21.9198L64.4398 23.8129L65.6805 24.8577L67.2746 22.9646L66.034 21.9198ZM64.46 24.8808C65.0556 25.5359 65.395 26.405 65.395 27.5236H67.0169C67.0169 26.0517 66.5592 24.7786 65.6602 23.7897L64.46 24.8808ZM65.395 27.5236C65.395 28.9044 64.6964 30.192 63.485 31.0789L64.4432 32.3876C66.0216 31.232 67.0169 29.4807 67.0169 27.5236H65.395ZM63.5831 32.4492C64.8786 33.1387 65.5693 34.2424 65.5693 35.6689H67.1913C67.1913 33.6081 66.1384 31.9718 64.3452 31.0174L63.5831 32.4492ZM65.5693 35.6689C65.5693 37.0061 65.012 38.0747 64.0058 38.832C62.9772 39.6061 61.428 40.0888 59.4307 40.0888V41.7108C61.6679 41.7108 63.5935 41.1723 64.9811 40.128C66.391 39.0669 67.1913 37.5201 67.1913 35.6689H65.5693ZM56.2782 27.5236C56.2782 28.4431 56.5719 29.2775 57.152 29.8881C57.7357 30.5025 58.5485 30.8255 59.4556 30.8255V29.2036C58.9429 29.2036 58.5725 29.0284 58.3279 28.771C58.0798 28.5098 57.9002 28.0987 57.9002 27.5236H56.2782ZM59.4556 30.8255C60.3627 30.8255 61.1755 30.5025 61.7592 29.8881C62.3393 29.2775 62.6329 28.4431 62.6329 27.5236H61.011C61.011 28.0987 60.8313 28.5098 60.5832 28.771C60.3387 29.0284 59.9683 29.2036 59.4556 29.2036V30.8255ZM62.6329 27.5236C62.6329 26.6042 62.3393 25.7698 61.7592 25.1592C61.1755 24.5447 60.3627 24.2217 59.4556 24.2217V25.8437C59.9683 25.8437 60.3387 26.0189 60.5832 26.2763C60.8313 26.5375 61.011 26.9486 61.011 27.5236H62.6329ZM59.4556 24.2217C58.5485 24.2217 57.7357 24.5447 57.152 25.1592C56.5719 25.7698 56.2782 26.6042 56.2782 27.5236H57.9002C57.9002 26.9486 58.0798 26.5375 58.3279 26.2763C58.5725 26.0189 58.9429 25.8437 59.4556 25.8437V24.2217ZM77.67 23.1147L77.0771 23.6681L78.1875 24.8579L78.4688 23.2549L77.67 23.1147ZM77.919 21.6949V20.8839H77.2379L77.1203 21.5548L77.919 21.6949ZM81.8547 21.6949H82.6657V20.8839H81.8547V21.6949ZM81.8547 34V34.811H82.6657V34H81.8547ZM77.919 34L77.1198 34.1378L77.2359 34.811H77.919V34ZM77.67 32.5553L78.4692 32.4175L78.1916 30.8078L77.0771 32.0019L77.67 32.5553ZM73.7343 33.4381C72.2629 33.4381 71.0392 32.87 70.1762 31.915C69.3082 30.9543 68.7664 29.5566 68.7664 27.8475H67.1444C67.1444 29.8996 67.7983 31.7027 68.9728 33.0025C70.1524 34.308 71.8181 35.0601 73.7343 35.0601V33.4381ZM68.7664 27.8475C68.7664 26.1383 69.3082 24.7406 70.1762 23.7799C71.0392 22.8249 72.2629 22.2568 73.7343 22.2568V20.6348C71.8181 20.6348 70.1524 21.387 68.9728 22.6925C67.7983 23.9922 67.1444 25.7953 67.1444 27.8475H68.7664ZM73.7343 22.2568C75.1145 22.2568 76.1915 22.7193 77.0771 23.6681L78.2628 22.5614C77.0561 21.2684 75.5425 20.6348 73.7343 20.6348V22.2568ZM78.4688 23.2549L78.7178 21.8351L77.1203 21.5548L76.8712 22.9746L78.4688 23.2549ZM77.919 22.5059H81.8547V20.8839H77.919V22.5059ZM81.0437 21.6949V34H82.6657V21.6949H81.0437ZM81.8547 33.189H77.919V34.811H81.8547V33.189ZM78.7182 33.8622L78.4692 32.4175L76.8708 32.6931L77.1198 34.1378L78.7182 33.8622ZM77.0771 32.0019C76.1865 32.9561 75.0821 33.4381 73.7343 33.4381V35.0601C75.5251 35.0601 77.0611 34.3962 78.2628 33.1086L77.0771 32.0019ZM71.6281 27.8475C71.6281 28.8135 71.932 29.688 72.5261 30.3291C73.125 30.9755 73.9638 31.3237 74.9051 31.3237V29.7017C74.3767 29.7017 73.9824 29.5144 73.7158 29.2267C73.4443 28.9337 73.25 28.4756 73.25 27.8475H71.6281ZM74.9051 31.3237C75.8463 31.3237 76.6851 30.9755 77.284 30.3291C77.8781 29.688 78.182 28.8135 78.182 27.8475H76.5601C76.5601 28.4756 76.3658 28.9337 76.0943 29.2267C75.8277 29.5144 75.4334 29.7017 74.9051 29.7017V31.3237ZM78.182 27.8475C78.182 26.8814 77.8781 26.0069 77.284 25.3658C76.6851 24.7194 75.8463 24.3712 74.9051 24.3712V25.9932C75.4334 25.9932 75.8277 26.1805 76.0943 26.4682C76.3658 26.7612 76.5601 27.2193 76.5601 27.8475H78.182ZM74.9051 24.3712C73.9638 24.3712 73.125 24.7194 72.5261 25.3658C71.932 26.0069 71.6281 26.8814 71.6281 27.8475H73.25C73.25 27.2193 73.4443 26.7612 73.7158 26.4682C73.9824 26.1805 74.3767 25.9932 74.9051 25.9932V24.3712ZM93.603 23.1147L93.0101 23.6681L94.1206 24.8579L94.4018 23.2549L93.603 23.1147ZM93.8521 21.6949V20.8839H93.171L93.0533 21.5548L93.8521 21.6949ZM97.7877 21.6949H98.5987V20.8839H97.7877V21.6949ZM97.7877 34V34.811H98.5987V34H97.7877ZM93.8521 34L93.0529 34.1378L93.169 34.811H93.8521V34ZM93.603 32.5553L94.4022 32.4175L94.1247 30.8078L93.0101 32.0019L93.603 32.5553ZM89.6674 33.4381C88.196 33.4381 86.9722 32.87 86.1093 31.915C85.2412 30.9543 84.6995 29.5566 84.6995 27.8475H83.0775C83.0775 29.8996 83.7314 31.7027 84.9058 33.0025C86.0854 34.308 87.7511 35.0601 89.6674 35.0601V33.4381ZM84.6995 27.8475C84.6995 26.1383 85.2412 24.7406 86.1093 23.7799C86.9722 22.8249 88.196 22.2568 89.6674 22.2568V20.6348C87.7511 20.6348 86.0854 21.387 84.9058 22.6925C83.7314 23.9922 83.0775 25.7953 83.0775 27.8475H84.6995ZM89.6674 22.2568C91.0476 22.2568 92.1245 22.7193 93.0101 23.6681L94.1959 22.5614C92.9891 21.2684 91.4755 20.6348 89.6674 20.6348V22.2568ZM94.4018 23.2549L94.6509 21.8351L93.0533 21.5548L92.8042 22.9746L94.4018 23.2549ZM93.8521 22.5059H97.7877V20.8839H93.8521V22.5059ZM96.9767 21.6949V34H98.5987V21.6949H96.9767ZM97.7877 33.189H93.8521V34.811H97.7877V33.189ZM94.6513 33.8622L94.4022 32.4175L92.8038 32.6931L93.0529 34.1378L94.6513 33.8622ZM93.0101 32.0019C92.1195 32.9561 91.0151 33.4381 89.6674 33.4381V35.0601C91.4582 35.0601 92.9941 34.3962 94.1959 33.1086L93.0101 32.0019ZM87.5611 27.8475C87.5611 28.8135 87.865 29.688 88.4591 30.3291C89.0581 30.9755 89.8968 31.3237 90.8381 31.3237V29.7017C90.3097 29.7017 89.9155 29.5144 89.6488 29.2267C89.3774 28.9337 89.1831 28.4756 89.1831 27.8475H87.5611ZM90.8381 31.3237C91.7794 31.3237 92.6181 30.9755 93.2171 30.3291C93.8112 29.688 94.1151 28.8135 94.1151 27.8475H92.4931C92.4931 28.4756 92.2988 28.9337 92.0274 29.2267C91.7607 29.5144 91.3665 29.7017 90.8381 29.7017V31.3237ZM94.1151 27.8475C94.1151 26.8814 93.8112 26.0069 93.2171 25.3658C92.6181 24.7194 91.7794 24.3712 90.8381 24.3712V25.9932C91.3665 25.9932 91.7607 26.1805 92.0274 26.4682C92.2988 26.7612 92.4931 27.2193 92.4931 27.8475H94.1151ZM90.8381 24.3712C89.8968 24.3712 89.0581 24.7194 88.4591 25.3658C87.865 26.0069 87.5611 26.8814 87.5611 27.8475H89.1831C89.1831 27.2193 89.3774 26.7612 89.6488 26.4682C89.9155 26.1805 90.3097 25.9932 90.8381 25.9932V24.3712ZM100.469 34H99.6582V34.811H100.469V34ZM100.469 21.6949V20.8839H99.6582V21.6949H100.469ZM104.455 21.6949L105.249 21.5333L105.117 20.8839H104.455V21.6949ZM104.754 23.1646L103.959 23.3262L104.363 25.313L105.44 23.5956L104.754 23.1646ZM111.056 22.7162L111.758 23.1221L112.065 22.5906L111.637 22.1506L111.056 22.7162ZM109.212 25.9046L108.774 26.5867L109.489 27.0465L109.914 26.3105L109.212 25.9046ZM105.003 34V34.811H105.814V34H105.003ZM101.28 34V21.6949H99.6582V34H101.28ZM100.469 22.5059H104.455V20.8839H100.469V22.5059ZM103.66 21.8566L103.959 23.3262L105.548 23.0029L105.249 21.5333L103.66 21.8566ZM105.44 23.5956C106.07 22.5923 106.962 22.2319 107.892 22.2319V20.6099C106.48 20.6099 105.031 21.1961 104.067 22.7335L105.44 23.5956ZM107.892 22.2319C108.741 22.2319 109.76 22.5473 110.474 23.2817L111.637 22.1506C110.558 21.0418 109.086 20.6099 107.892 20.6099V22.2319ZM110.353 22.3103L108.51 25.4986L109.914 26.3105L111.758 23.1221L110.353 22.3103ZM109.651 25.2224C108.845 24.7046 108.197 24.4957 107.369 24.4957V26.1177C107.836 26.1177 108.184 26.2077 108.774 26.5867L109.651 25.2224ZM107.369 24.4957C106.519 24.4957 105.687 24.7417 105.075 25.3863C104.468 26.0253 104.192 26.9344 104.192 28.0218H105.814C105.814 27.1913 106.023 26.7428 106.251 26.5037C106.472 26.2703 106.824 26.1177 107.369 26.1177V24.4957ZM104.192 28.0218V34H105.814V28.0218H104.192ZM105.003 33.189H100.469V34.811H105.003V33.189Z" fill="black" mask="url(#path-14-outside-2_2982_10310)"/>
</g>
<defs>
<filter id="filter0_d_2982_10310" x="10.123" y="10.7773" width="29.8735" height="29.8754" filterUnits="userSpaceOnUse" color-interpolation-filters="sRGB">
<feFlood flood-opacity="0" result="BackgroundImageFix"/>
<feColorMatrix in="SourceAlpha" type="matrix" values="0 0 0 0 0 0 0 0 0 0 0 0 0 0 0 0 0 0 127 0" result="hardAlpha"/>
<feOffset dx="0.875435" dy="0.875435"/>
<feComposite in2="hardAlpha" operator="out"/>
<feColorMatrix type="matrix" values="0 0 0 0 0.156863 0 0 0 0 0.152941 0 0 0 0 0.235294 0 0 0 1 0"/>
<feBlend mode="normal" in2="BackgroundImageFix" result="effect1_dropShadow_2982_10310"/>
<feBlend mode="normal" in="SourceGraphic" in2="effect1_dropShadow_2982_10310" result="shape"/>
</filter>
<filter id="filter1_d_2982_10310" x="18.5371" y="15.9219" width="13.0415" height="10.6723" filterUnits="userSpaceOnUse" color-interpolation-filters="sRGB">
<feFlood flood-opacity="0" result="BackgroundImageFix"/>
<feColorMatrix in="SourceAlpha" type="matrix" values="0 0 0 0 0 0 0 0 0 0 0 0 0 0 0 0 0 0 127 0" result="hardAlpha"/>
<feOffset dx="0.875435" dy="0.875435"/>
<feComposite in2="hardAlpha" operator="out"/>
<feColorMatrix type="matrix" values="0 0 0 0 0.156863 0 0 0 0 0.152941 0 0 0 0 0.235294 0 0 0 1 0"/>
<feBlend mode="normal" in2="BackgroundImageFix" result="effect1_dropShadow_2982_10310"/>
<feBlend mode="normal" in="SourceGraphic" in2="effect1_dropShadow_2982_10310" result="shape"/>
</filter>
<filter id="filter2_d_2982_10310" x="36.6973" y="20.0742" width="75.9794" height="22.4462" filterUnits="userSpaceOnUse" color-interpolation-filters="sRGB">
<feFlood flood-opacity="0" result="BackgroundImageFix"/>
<feColorMatrix in="SourceAlpha" type="matrix" values="0 0 0 0 0 0 0 0 0 0 0 0 0 0 0 0 0 0 127 0" result="hardAlpha"/>
<feOffset dx="1.62199" dy="1.62199"/>
<feComposite in2="hardAlpha" operator="out"/>
<feColorMatrix type="matrix" values="0 0 0 0 0.156863 0 0 0 0 0.152941 0 0 0 0 0.235294 0 0 0 1 0"/>
<feBlend mode="normal" in2="BackgroundImageFix" result="effect1_dropShadow_2982_10310"/>
<feBlend mode="normal" in="SourceGraphic" in2="effect1_dropShadow_2982_10310" result="shape"/>
</filter>
</defs>
</svg>
