<svg width="17" height="17" viewBox="0 0 17 17" fill="none" xmlns="http://www.w3.org/2000/svg">
<path d="M5.88022 4.23837L7.16005 4.04532V3.50825C7.16005 3.31689 7.31518 3.16176 7.50655 3.16176H8.59801C8.78937 3.16176 8.94451 3.31689 8.94451 3.50825V4.04532L10.2243 4.23837C10.383 4.26231 10.5045 4.39211 10.5179 4.55206L10.7235 7.00492C10.7404 7.20699 10.581 7.38035 10.3782 7.38035H5.72636C5.52358 7.38035 5.36414 7.20699 5.38107 7.00492L5.58662 4.55206C5.60002 4.39211 5.72151 4.26231 5.88022 4.23837Z" stroke="black" stroke-width="0.0173248"/>
<path d="M8.49855 4.05111H7.59766V3.82588C7.59766 3.7015 7.69849 3.60066 7.82288 3.60066H8.27332C8.39771 3.60066 8.49855 3.7015 8.49855 3.82588V4.05111Z" stroke="black" stroke-width="0.0173248"/>
<g filter="url(#filter0_d_826_2755)">
<path d="M1.38086 3.87832V1.5568C1.38086 1.46112 1.45843 1.38355 1.55411 1.38355H14.5477C14.6434 1.38355 14.721 1.46112 14.721 1.5568V3.87832C14.721 3.97401 14.6434 4.05157 14.5477 4.05157H13.3869V7.37793C13.3869 9.34899 11.7891 10.9468 9.81804 10.9468H6.28378V14.7236C4.31272 14.7236 2.71487 13.1258 2.71487 11.1547V4.05157H1.55411C1.45843 4.05157 1.38086 3.97401 1.38086 3.87832Z" fill="#BDA6FF"/>
<path d="M1.38086 3.87832V1.5568C1.38086 1.46112 1.45843 1.38355 1.55411 1.38355H14.5477C14.6434 1.38355 14.721 1.46112 14.721 1.5568V3.87832C14.721 3.97401 14.6434 4.05157 14.5477 4.05157H13.3869V7.37793C13.3869 9.34899 11.7891 10.9468 9.81804 10.9468H6.28378V14.7236C4.31272 14.7236 2.71487 13.1258 2.71487 11.1547V4.05157H1.55411C1.45843 4.05157 1.38086 3.97401 1.38086 3.87832Z" stroke="black" stroke-width="0.43312"/>
</g>
<g filter="url(#filter1_d_826_2755)">
<path d="M5.88022 4.9049L7.16005 4.71185V4.17478C7.16005 3.98342 7.31518 3.82829 7.50655 3.82829H8.59801C8.78937 3.82829 8.94451 3.98342 8.94451 4.17478V4.71185L10.2243 4.9049C10.383 4.92884 10.5045 5.05864 10.5179 5.21858L10.7235 7.67144C10.7404 7.87351 10.581 8.04688 10.3782 8.04688H5.72636C5.52358 8.04688 5.36414 7.87351 5.38107 7.67144L5.58662 5.21858C5.60002 5.05864 5.72151 4.92884 5.88022 4.9049Z" fill="white"/>
<path d="M5.88022 4.9049L7.16005 4.71185V4.17478C7.16005 3.98342 7.31518 3.82829 7.50655 3.82829H8.59801C8.78937 3.82829 8.94451 3.98342 8.94451 4.17478V4.71185L10.2243 4.9049C10.383 4.92884 10.5045 5.05864 10.5179 5.21858L10.7235 7.67144C10.7404 7.87351 10.581 8.04688 10.3782 8.04688H5.72636C5.52358 8.04688 5.36414 7.87351 5.38107 7.67144L5.58662 5.21858C5.60002 5.05864 5.72151 4.92884 5.88022 4.9049Z" stroke="black" stroke-width="0.43312"/>
</g>
<path d="M8.50245 4.77348H7.60156V4.31437C7.60156 4.2761 7.63259 4.24507 7.67086 4.24507H8.43315C8.47143 4.24507 8.50245 4.2761 8.50245 4.31437V4.77348Z" fill="#28273C" stroke="black" stroke-width="0.0173248"/>
<path d="M10.2852 7.8306C10.3533 7.7398 10.3963 7.63269 10.41 7.52001L10.4584 7.12029L10.511 7.73661C10.5153 7.78717 10.4755 7.8306 10.4247 7.8306H10.2852V7.8306Z" fill="#BDA6FF"/>
<path d="M5.79843 5.50404C5.85014 5.32306 5.97313 5.17083 6.13921 5.08225V5.08225L5.90469 5.11928C5.84921 5.12804 5.807 5.17376 5.80269 5.22977L5.77539 5.58467L5.79843 5.50404Z" fill="#BDA6FF"/>
<path d="M1.5957 1.59411H3.10296L2.03749 2.0792L1.5957 2.26111V1.59411Z" fill="#3100BE"/>
<path d="M9.67188 10.734C11.3378 10.5019 12.6616 9.21742 12.9437 7.55921L13.1715 6.22085L13.2187 7.12458C13.3237 9.13505 11.6839 10.8038 9.67188 10.734V10.734V10.734Z" fill="#3100BE"/>
<defs>
<filter id="filter0_d_826_2755" x="1.16406" y="1.16699" width="14.1892" height="14.189" filterUnits="userSpaceOnUse" color-interpolation-filters="sRGB">
<feFlood flood-opacity="0" result="BackgroundImageFix"/>
<feColorMatrix in="SourceAlpha" type="matrix" values="0 0 0 0 0 0 0 0 0 0 0 0 0 0 0 0 0 0 127 0" result="hardAlpha"/>
<feOffset dx="0.415795" dy="0.415795"/>
<feComposite in2="hardAlpha" operator="out"/>
<feColorMatrix type="matrix" values="0 0 0 0 0.156863 0 0 0 0 0.152941 0 0 0 0 0.235294 0 0 0 1 0"/>
<feBlend mode="normal" in2="BackgroundImageFix" result="effect1_dropShadow_826_2755"/>
<feBlend mode="normal" in="SourceGraphic" in2="effect1_dropShadow_826_2755" result="shape"/>
</filter>
<filter id="filter1_d_826_2755" x="5.16406" y="3.61172" width="6.19314" height="5.06751" filterUnits="userSpaceOnUse" color-interpolation-filters="sRGB">
<feFlood flood-opacity="0" result="BackgroundImageFix"/>
<feColorMatrix in="SourceAlpha" type="matrix" values="0 0 0 0 0 0 0 0 0 0 0 0 0 0 0 0 0 0 127 0" result="hardAlpha"/>
<feOffset dx="0.415795" dy="0.415795"/>
<feComposite in2="hardAlpha" operator="out"/>
<feColorMatrix type="matrix" values="0 0 0 0 0.156863 0 0 0 0 0.152941 0 0 0 0 0.235294 0 0 0 1 0"/>
<feBlend mode="normal" in2="BackgroundImageFix" result="effect1_dropShadow_826_2755"/>
<feBlend mode="normal" in="SourceGraphic" in2="effect1_dropShadow_826_2755" result="shape"/>
</filter>
</defs>
</svg>
