<svg width="17" height="17" viewBox="0 0 17 17" fill="none" xmlns="http://www.w3.org/2000/svg">
<rect width="16" height="16" transform="translate(0.0507812 0.0507812)" fill="none"/>
<path d="M5.78914 4.07876L7.12251 3.87764V3.3181C7.12251 3.11873 7.28413 2.95711 7.4835 2.95711H8.62063C8.82 2.95711 8.98162 3.11873 8.98162 3.3181V3.87764L10.315 4.07876C10.4803 4.1037 10.6069 4.23893 10.6209 4.40557L10.835 6.96105C10.8527 7.17157 10.6866 7.35218 10.4753 7.35218H5.62884C5.41757 7.35218 5.25146 7.17157 5.2691 6.96105L5.48325 4.40557C5.49721 4.23893 5.62379 4.1037 5.78914 4.07876Z" stroke="black" stroke-width="0.0180496"/>
<path d="M8.5167 3.88366H7.57812V3.64902C7.57812 3.51943 7.68318 3.41438 7.81277 3.41438H8.28206C8.41165 3.41438 8.5167 3.51943 8.5167 3.64902V3.88366Z" stroke="black" stroke-width="0.0180496"/>
<g filter="url(#filter0_d_826_2755)">
<path d="M1.10156 3.70365V1.285C1.10156 1.18532 1.18237 1.10451 1.28206 1.10451H14.8193C14.9189 1.10451 14.9997 1.18532 14.9997 1.285V3.70365C14.9997 3.80333 14.9189 3.88414 14.8193 3.88414H13.6099V7.34967C13.6099 9.40318 11.9452 11.0679 9.89171 11.0679H6.2096V15.0027C4.15608 15.0027 2.49138 13.338 2.49138 11.2845V3.88414H1.28206C1.18237 3.88414 1.10156 3.80333 1.10156 3.70365Z" fill="#BDA6FF"/>
<path d="M1.10156 3.70365V1.285C1.10156 1.18532 1.18237 1.10451 1.28206 1.10451H14.8193C14.9189 1.10451 14.9997 1.18532 14.9997 1.285V3.70365C14.9997 3.80333 14.9189 3.88414 14.8193 3.88414H13.6099V7.34967C13.6099 9.40318 11.9452 11.0679 9.89171 11.0679H6.2096V15.0027C4.15608 15.0027 2.49138 13.338 2.49138 11.2845V3.88414H1.28206C1.18237 3.88414 1.10156 3.80333 1.10156 3.70365Z" stroke="black" stroke-width="0.45124"/>
</g>
<g filter="url(#filter1_d_826_2755)">
<path d="M5.78914 4.77317L7.12251 4.57205V4.01251C7.12251 3.81314 7.28413 3.65152 7.4835 3.65152H8.62063C8.82 3.65152 8.98162 3.81314 8.98162 4.01251V4.57205L10.315 4.77317C10.4803 4.79811 10.6069 4.93335 10.6209 5.09998L10.835 7.65546C10.8527 7.86598 10.6866 8.0466 10.4753 8.0466H5.62884C5.41757 8.0466 5.25146 7.86598 5.2691 7.65546L5.48325 5.09998C5.49721 4.93335 5.62379 4.79811 5.78914 4.77317Z" fill="white"/>
<path d="M5.78914 4.77317L7.12251 4.57205V4.01251C7.12251 3.81314 7.28413 3.65152 7.4835 3.65152H8.62063C8.82 3.65152 8.98162 3.81314 8.98162 4.01251V4.57205L10.315 4.77317C10.4803 4.79811 10.6069 4.93335 10.6209 5.09998L10.835 7.65546C10.8527 7.86598 10.6866 8.0466 10.4753 8.0466H5.62884C5.41757 8.0466 5.25146 7.86598 5.2691 7.65546L5.48325 5.09998C5.49721 4.93335 5.62379 4.79811 5.78914 4.77317Z" stroke="black" stroke-width="0.45124"/>
</g>
<path d="M8.52061 4.63625H7.58203V4.15794C7.58203 4.11806 7.61436 4.08574 7.65423 4.08574H8.44841C8.48829 4.08574 8.52061 4.11806 8.52061 4.15794V4.63625Z" fill="#28273C" stroke="black" stroke-width="0.0180496"/>
<path d="M10.3789 7.82127C10.4499 7.72667 10.4947 7.61508 10.5089 7.49769L10.5594 7.08124L10.6142 7.72335C10.6187 7.77603 10.5772 7.82127 10.5243 7.82127H10.3789V7.82127Z" fill="#BDA6FF"/>
<path d="M5.70369 5.39738C5.75756 5.20882 5.8857 5.05023 6.05873 4.95795V4.95795L5.8144 4.99653C5.75659 5.00565 5.71262 5.05328 5.70813 5.11164L5.67969 5.48139L5.70369 5.39738Z" fill="#BDA6FF"/>
<path d="M1.32617 1.32388H2.89649L1.78644 1.82926L1.32617 2.01878V1.32388Z" fill="#3100BE"/>
<path d="M9.74023 10.8461C11.4759 10.6043 12.855 9.26611 13.149 7.53852L13.3863 6.14417L13.4354 7.08571C13.5449 9.18029 11.8364 10.9189 9.74023 10.8461V10.8461V10.8461Z" fill="#3100BE"/>
<defs>
<filter id="filter0_d_826_2755" x="0.875" y="0.878891" width="14.7828" height="14.7826" filterUnits="userSpaceOnUse" color-interpolation-filters="sRGB">
<feFlood flood-opacity="0" result="BackgroundImageFix"/>
<feColorMatrix in="SourceAlpha" type="matrix" values="0 0 0 0 0 0 0 0 0 0 0 0 0 0 0 0 0 0 127 0" result="hardAlpha"/>
<feOffset dx="0.43319" dy="0.43319"/>
<feComposite in2="hardAlpha" operator="out"/>
<feColorMatrix type="matrix" values="0 0 0 0 0.156863 0 0 0 0 0.152941 0 0 0 0 0.235294 0 0 0 1 0"/>
<feBlend mode="normal" in2="BackgroundImageFix" result="effect1_dropShadow_826_2755"/>
<feBlend mode="normal" in="SourceGraphic" in2="effect1_dropShadow_826_2755" result="shape"/>
</filter>
<filter id="filter1_d_826_2755" x="5.04297" y="3.4259" width="6.45272" height="5.2795" filterUnits="userSpaceOnUse" color-interpolation-filters="sRGB">
<feFlood flood-opacity="0" result="BackgroundImageFix"/>
<feColorMatrix in="SourceAlpha" type="matrix" values="0 0 0 0 0 0 0 0 0 0 0 0 0 0 0 0 0 0 127 0" result="hardAlpha"/>
<feOffset dx="0.43319" dy="0.43319"/>
<feComposite in2="hardAlpha" operator="out"/>
<feColorMatrix type="matrix" values="0 0 0 0 0.156863 0 0 0 0 0.152941 0 0 0 0 0.235294 0 0 0 1 0"/>
<feBlend mode="normal" in2="BackgroundImageFix" result="effect1_dropShadow_826_2755"/>
<feBlend mode="normal" in="SourceGraphic" in2="effect1_dropShadow_826_2755" result="shape"/>
</filter>
</defs>
</svg>
