<svg width="174" height="50" viewBox="0 0 174 50" fill="none" xmlns="http://www.w3.org/2000/svg">
<path d="M166.667 50H6.41026C2.88622 50 0 47.1859 0 43.75V6.25C0 2.81406 2.88622 0 6.41026 0H166.667C170.191 0 173.077 2.81406 173.077 6.25V43.75C173.077 47.1859 170.191 50 166.667 50Z" fill="black"/>
<path d="M166.667 1.00156C169.635 1.00156 172.05 3.35625 172.05 6.25V43.75C172.05 46.6437 169.635 48.9984 166.667 48.9984H6.41026C3.44231 48.9984 1.02724 46.6437 1.02724 43.75V6.25C1.02724 3.35625 3.44231 1.00156 6.41026 1.00156H166.667ZM166.667 0H6.41026C2.88622 0 0 2.81406 0 6.25V43.75C0 47.1859 2.88622 50 6.41026 50H166.667C170.191 50 173.077 47.1859 173.077 43.75V6.25C173.077 2.81406 170.191 0 166.667 0Z" fill="#A6A6A6"/>
<path d="M13.3778 9.42422C13.0012 9.80859 12.7832 10.407 12.7832 11.182V38.8258C12.7832 39.6008 13.0012 40.1992 13.3778 40.5836L13.4707 40.668L29.3585 25.1836V24.818L13.4707 9.33359L13.3778 9.42422Z" fill="url(#paint0_linear_3071_11621)"/>
<path d="M34.6494 30.3477L29.3594 25.1836V24.818L34.6558 19.6539L34.7744 19.7211L41.0469 23.2008C42.8369 24.1883 42.8369 25.8133 41.0469 26.807L34.7744 30.2805L34.6494 30.3477V30.3477Z" fill="url(#paint1_linear_3071_11621)"/>
<path d="M34.7728 30.2796L29.3577 24.9999L13.377 40.5827C13.9715 41.1921 14.9411 41.2655 16.0436 40.6562L34.7728 30.2796" fill="url(#paint2_linear_3071_11621)"/>
<path d="M34.7728 19.7203L16.0436 9.34376C14.9411 8.74063 13.9715 8.81407 13.377 9.42344L29.3577 25L34.7728 19.7203Z" fill="url(#paint3_linear_3071_11621)"/>
<path d="M60.7913 12.8055C60.7913 13.8492 60.4708 14.6852 59.8393 15.3086C59.1134 16.0477 58.1679 16.4195 57.0092 16.4195C55.9018 16.4195 54.9563 16.0414 54.1807 15.2961C53.4034 14.5398 53.0156 13.6117 53.0156 12.5008C53.0156 11.3898 53.4034 10.4617 54.1807 9.71172C54.9563 8.96016 55.9018 8.58203 57.0092 8.58203C57.5605 8.58203 58.0861 8.69297 58.5877 8.89922C59.0877 9.10703 59.4948 9.38828 59.7897 9.73516L59.1198 10.3945C58.6054 9.80234 57.905 9.51016 57.0092 9.51016C56.2015 9.51016 55.5012 9.78516 54.9067 10.3398C54.3185 10.8961 54.0236 11.6164 54.0236 12.5008C54.0236 13.3852 54.3185 14.1117 54.9067 14.668C55.5012 15.2164 56.2015 15.4977 57.0092 15.4977C57.8666 15.4977 58.5877 15.2164 59.1567 14.6617C59.5317 14.2945 59.7448 13.7883 59.8009 13.1414H57.0092V12.2383H60.7336C60.7784 12.4336 60.7913 12.6227 60.7913 12.8055V12.8055Z" fill="white" stroke="white" stroke-width="0.16" stroke-miterlimit="10"/>
<path d="M66.6997 9.67422H63.2013V12.0492H66.3552V12.9523H63.2013V15.3273H66.6997V16.2477H62.2109V8.75391H66.6997V9.67422Z" fill="white" stroke="white" stroke-width="0.16" stroke-miterlimit="10"/>
<path d="M70.8706 16.2477H69.8802V9.67422H67.7344V8.75391H73.018V9.67422H70.8706V16.2477V16.2477Z" fill="white" stroke="white" stroke-width="0.16" stroke-miterlimit="10"/>
<path d="M76.8418 16.2477V8.75391H77.8306V16.2477H76.8418Z" fill="white" stroke="white" stroke-width="0.16" stroke-miterlimit="10"/>
<path d="M82.2124 16.2477H81.23V9.67422H79.0762V8.75391H84.3662V9.67422H82.2124V16.2477Z" fill="white" stroke="white" stroke-width="0.16" stroke-miterlimit="10"/>
<path d="M94.3697 15.2836C93.6117 16.0414 92.6726 16.4195 91.5524 16.4195C90.4258 16.4195 89.4867 16.0414 88.7287 15.2836C87.9723 14.5273 87.5957 13.5992 87.5957 12.5008C87.5957 11.4023 87.9723 10.4742 88.7287 9.71797C89.4867 8.96016 90.4258 8.58203 91.5524 8.58203C92.6662 8.58203 93.6053 8.96016 94.3633 9.72422C95.1262 10.4867 95.5028 11.4086 95.5028 12.5008C95.5028 13.5992 95.1262 14.5273 94.3697 15.2836ZM89.4611 14.6555C90.0316 15.2164 90.7255 15.4977 91.5524 15.4977C92.3729 15.4977 93.0733 15.2164 93.6374 14.6555C94.2063 14.0945 94.4947 13.3742 94.4947 12.5008C94.4947 11.6273 94.2063 10.907 93.6374 10.3461C93.0733 9.78516 92.3729 9.50391 91.5524 9.50391C90.7255 9.50391 90.0316 9.78516 89.4611 10.3461C88.8922 10.907 88.6037 11.6273 88.6037 12.5008C88.6037 13.3742 88.8922 14.0945 89.4611 14.6555V14.6555Z" fill="white" stroke="white" stroke-width="0.16" stroke-miterlimit="10"/>
<path d="M96.8926 16.2477V8.75391H98.0945L101.832 14.582H101.875L101.832 13.1414V8.75391H102.82V16.2477H101.788L97.8749 10.132H97.8317L97.8749 11.5789V16.2477H96.8926V16.2477Z" fill="white" stroke="white" stroke-width="0.16" stroke-miterlimit="10"/>
<path d="M87.3524 27.1914C84.3412 27.1914 81.8812 29.4258 81.8812 32.5086C81.8812 35.5664 84.3412 37.8242 87.3524 37.8242C90.37 37.8242 92.83 35.5664 92.83 32.5086C92.83 29.4258 90.37 27.1914 87.3524 27.1914ZM87.3524 35.7305C85.7002 35.7305 84.2787 34.4008 84.2787 32.5086C84.2787 30.5914 85.7002 29.2852 87.3524 29.2852C89.0046 29.2852 90.4325 30.5914 90.4325 32.5086C90.4325 34.4008 89.0046 35.7305 87.3524 35.7305V35.7305ZM75.4149 27.1914C72.3973 27.1914 69.9438 29.4258 69.9438 32.5086C69.9438 35.5664 72.3973 37.8242 75.4149 37.8242C78.4309 37.8242 80.8861 35.5664 80.8861 32.5086C80.8861 29.4258 78.4309 27.1914 75.4149 27.1914ZM75.4149 35.7305C73.7611 35.7305 72.3348 34.4008 72.3348 32.5086C72.3348 30.5914 73.7611 29.2852 75.4149 29.2852C77.0671 29.2852 78.4886 30.5914 78.4886 32.5086C78.4886 34.4008 77.0671 35.7305 75.4149 35.7305ZM61.2098 28.8211V31.0805H66.7434C66.5816 32.343 66.1489 33.2711 65.4854 33.918C64.6777 34.6992 63.4197 35.5664 61.2098 35.5664C57.8043 35.5664 55.1377 32.8867 55.1377 29.5664C55.1377 26.2461 57.8043 23.5664 61.2098 23.5664C63.0511 23.5664 64.3909 24.268 65.3797 25.1773L67.0127 23.5852C65.6297 22.2977 63.7899 21.3086 61.2098 21.3086C56.5399 21.3086 52.6152 25.0133 52.6152 29.5664C52.6152 34.1195 56.5399 37.8242 61.2098 37.8242C63.7338 37.8242 65.6296 37.018 67.12 35.5055C68.6473 34.0164 69.1232 31.9227 69.1232 30.232C69.1232 29.707 69.0784 29.2242 68.9982 28.8211H61.2098ZM119.296 30.5727C118.846 29.3836 117.457 27.1914 114.626 27.1914C111.822 27.1914 109.487 29.3461 109.487 32.5086C109.487 35.4867 111.798 37.8242 114.896 37.8242C117.4 37.8242 118.846 36.3352 119.441 35.468L117.582 34.2602C116.961 35.1445 116.117 35.7305 114.896 35.7305C113.683 35.7305 112.812 35.1883 112.255 34.1195L119.548 31.1773L119.296 30.5727V30.5727ZM111.86 32.343C111.798 30.293 113.493 29.243 114.708 29.243C115.66 29.243 116.468 29.707 116.737 30.3711L111.86 32.343V32.343ZM105.933 37.5008H108.33V21.8758H105.933V37.5008ZM102.006 28.3758H101.926C101.388 27.7539 100.36 27.1914 99.0591 27.1914C96.3284 27.1914 93.8316 29.5289 93.8316 32.5258C93.8316 35.5055 96.3284 37.8242 99.0591 37.8242C100.36 37.8242 101.388 37.257 101.926 36.6164H102.006V37.3789C102.006 39.4117 100.892 40.5039 99.096 40.5039C97.6312 40.5039 96.7226 39.4727 96.3476 38.6055L94.2627 39.4539C94.8636 40.8633 96.455 42.5977 99.096 42.5977C101.907 42.5977 104.279 40.9852 104.279 37.0617V27.5148H102.006V28.3758V28.3758ZM99.2643 35.7305C97.612 35.7305 96.229 34.382 96.229 32.5258C96.229 30.6523 97.612 29.2852 99.2643 29.2852C100.892 29.2852 102.176 30.6523 102.176 32.5258C102.176 34.382 100.892 35.7305 99.2643 35.7305V35.7305ZM130.521 21.8758H124.787V37.5008H127.178V31.5805H130.521C133.176 31.5805 135.78 29.707 135.78 26.7273C135.78 23.7492 133.17 21.8758 130.521 21.8758V21.8758ZM130.583 29.407H127.178V24.0492H130.583C132.368 24.0492 133.388 25.4945 133.388 26.7273C133.388 27.9367 132.368 29.407 130.583 29.407ZM145.364 27.1617C143.636 27.1617 141.84 27.9055 141.101 29.5539L143.223 30.4211C143.679 29.5539 144.519 29.2727 145.407 29.2727C146.647 29.2727 147.905 29.9992 147.924 31.282V31.4461C147.492 31.2023 146.566 30.8414 145.426 30.8414C143.141 30.8414 140.812 32.068 140.812 34.357C140.812 36.4508 142.684 37.7992 144.788 37.7992C146.397 37.7992 147.285 37.0914 147.843 36.268H147.924V37.4758H150.234V31.482C150.234 28.7117 148.112 27.1617 145.364 27.1617ZM145.075 35.7242C144.293 35.7242 143.203 35.3461 143.203 34.4008C143.203 33.1914 144.562 32.7273 145.739 32.7273C146.791 32.7273 147.285 32.9539 147.924 33.2523C147.737 34.6992 146.46 35.7242 145.075 35.7242V35.7242ZM158.647 27.5039L155.899 34.2773H155.817L152.976 27.5039H150.397L154.666 36.9695L152.231 42.2367H154.729L161.307 27.5039H158.647V27.5039ZM137.094 37.5008H139.492V21.8758H137.094V37.5008Z" fill="white"/>
<defs>
<linearGradient id="paint0_linear_3071_11621" x1="27.9479" y1="39.1137" x2="6.97659" y2="17.6047" gradientUnits="userSpaceOnUse">
<stop stop-color="#00A0FF"/>
<stop offset="0.0066" stop-color="#00A1FF"/>
<stop offset="0.2601" stop-color="#00BEFF"/>
<stop offset="0.5122" stop-color="#00D2FF"/>
<stop offset="0.7604" stop-color="#00DFFF"/>
<stop offset="1" stop-color="#00E3FF"/>
</linearGradient>
<linearGradient id="paint1_linear_3071_11621" x1="43.3778" y1="24.999" x2="12.3562" y2="24.999" gradientUnits="userSpaceOnUse">
<stop stop-color="#FFE000"/>
<stop offset="0.4087" stop-color="#FFBD00"/>
<stop offset="0.7754" stop-color="#FFA500"/>
<stop offset="1" stop-color="#FF9C00"/>
</linearGradient>
<linearGradient id="paint2_linear_3071_11621" x1="31.8282" y1="22.1298" x2="3.38947" y2="-7.03816" gradientUnits="userSpaceOnUse">
<stop stop-color="#FF3A44"/>
<stop offset="1" stop-color="#C31162"/>
</linearGradient>
<linearGradient id="paint3_linear_3071_11621" x1="9.35426" y1="49.7798" x2="22.0534" y2="36.7551" gradientUnits="userSpaceOnUse">
<stop stop-color="#32A071"/>
<stop offset="0.0685" stop-color="#2DA771"/>
<stop offset="0.4762" stop-color="#15CF74"/>
<stop offset="0.8009" stop-color="#06E775"/>
<stop offset="1" stop-color="#00F076"/>
</linearGradient>
</defs>
</svg>
