<svg width="32" height="32" viewBox="0 0 32 32" fill="none" xmlns="http://www.w3.org/2000/svg">
<rect width="32" height="32" rx="16" fill="#141416"/>
<g clip-path="url(#clip0_2758_10532)">
<g clip-path="url(#clip1_2758_10532)">
<path fill-rule="evenodd" clip-rule="evenodd" d="M20.0026 10.6654H12.0026C11.2662 10.6654 10.6693 11.2623 10.6693 11.9987V19.9987C10.6693 20.7351 11.2662 21.332 12.0026 21.332H20.0026C20.739 21.332 21.336 20.7351 21.336 19.9987V11.9987C21.336 11.2623 20.739 10.6654 20.0026 10.6654ZM12.0026 9.33203C10.5298 9.33203 9.33594 10.5259 9.33594 11.9987V19.9987C9.33594 21.4714 10.5298 22.6653 12.0026 22.6653H20.0026C21.4754 22.6653 22.6693 21.4714 22.6693 19.9987V11.9987C22.6693 10.5259 21.4754 9.33203 20.0026 9.33203H12.0026Z" fill="#E6E8EC"/>
<path d="M12.6667 13.3333C13.0348 13.3333 13.3333 13.0348 13.3333 12.6667C13.3333 12.2985 13.0348 12 12.6667 12C12.2985 12 12 12.2985 12 12.6667C12 13.0348 12.2985 13.3333 12.6667 13.3333Z" fill="#E6E8EC"/>
<path d="M12.6667 14.668C12.2985 14.668 12 14.9664 12 15.3346V19.3347C12 19.7029 12.2985 20.0013 12.6667 20.0013C13.0348 20.0013 13.3333 19.7029 13.3333 19.3347V15.3346C13.3333 14.9664 13.0348 14.668 12.6667 14.668Z" fill="#E6E8EC"/>
<path d="M17.3307 16.0013C16.5943 16.0013 15.9974 16.5982 15.9974 17.3346V19.3347C15.9974 19.7029 15.6989 20.0013 15.3307 20.0013C14.9625 20.0013 14.6641 19.7029 14.6641 19.3347V15.3346C14.6641 14.9664 14.9625 14.668 15.3307 14.668C15.601 14.668 15.8337 14.8288 15.9383 15.0599C16.3436 14.8113 16.8205 14.668 17.3307 14.668C18.8034 14.668 19.9974 15.8619 19.9974 17.3346V19.3347C19.9974 19.7029 19.6989 20.0013 19.3307 20.0013C18.9625 20.0013 18.664 19.7029 18.664 19.3347V17.3346C18.664 16.5982 18.0671 16.0013 17.3307 16.0013Z" fill="#E6E8EC"/>
</g>
</g>
<defs>
<clipPath id="clip0_2758_10532">
<rect width="16" height="16" fill="white" transform="translate(8 8)"/>
</clipPath>
<clipPath id="clip1_2758_10532">
<rect width="16" height="16" fill="white" transform="translate(8 8)"/>
</clipPath>
</defs>
</svg>
