<svg width="25" height="25" viewBox="0 0 25 25" fill="none" xmlns="http://www.w3.org/2000/svg">
<path d="M18.2519 15.3515C17.9511 15.1993 16.4864 14.4845 16.2126 14.3825C15.9389 14.285 15.7401 14.234 15.5406 14.5347C15.3456 14.828 14.7711 15.4993 14.5956 15.695C14.4201 15.8907 14.2476 15.9058 13.9514 15.773C13.6506 15.6208 12.6899 15.308 11.5491 14.285C10.6581 13.4922 10.0649 12.5157 9.88861 12.215C9.71311 11.918 9.86911 11.75 10.0176 11.6015C10.1541 11.465 10.3184 11.258 10.4706 11.078C10.6154 10.898 10.6619 10.7773 10.7676 10.5822C10.8651 10.3715 10.8149 10.2072 10.7406 10.0588C10.6664 9.91025 10.0686 8.438 9.81886 7.8515C9.58036 7.2695 9.33061 7.34375 9.14686 7.34375C8.97511 7.328 8.77561 7.328 8.57686 7.328C8.37811 7.328 8.05336 7.40225 7.77961 7.68725C7.50586 7.988 6.73261 8.7065 6.73261 10.16C6.73261 11.6173 7.80286 13.0272 7.95136 13.238C8.10361 13.433 10.0566 16.433 13.0529 17.7222C13.7676 18.023 14.3226 18.203 14.7561 18.3515C15.4709 18.578 16.1234 18.5465 16.6386 18.4722C17.2086 18.3785 18.4041 17.7493 18.6546 17.0465C18.9089 16.3393 18.9089 15.7535 18.8346 15.6207C18.7604 15.4842 18.5654 15.41 18.2646 15.2772L18.2519 15.3515ZM12.8181 22.7188H12.8024C11.0286 22.7188 9.27511 22.238 7.74361 21.3395L7.38436 21.125L3.63436 22.1015L4.64236 18.4528L4.40011 18.0778C3.40971 16.503 2.88428 14.6805 2.88436 12.8202C2.88436 7.37525 7.34161 2.93375 12.8256 2.93375C15.4821 2.93375 17.9744 3.96875 19.8494 5.84375C20.7743 6.7577 21.508 7.84669 22.0076 9.04719C22.5072 10.2477 22.7628 11.5357 22.7594 12.836C22.7519 18.2773 18.2984 22.7188 12.8219 22.7188H12.8181ZM21.2751 4.418C18.9936 2.2145 15.9936 0.96875 12.8024 0.96875C6.22036 0.96875 0.860859 6.305 0.857109 12.863C0.857109 14.957 1.40386 17 2.45086 18.8083L0.755859 24.9688L7.09186 23.3165C8.84709 24.2628 10.809 24.7606 12.8031 24.7655H12.8069C19.3926 24.7655 24.7521 19.4293 24.7559 12.8668C24.7559 9.69125 23.5176 6.7025 21.2601 4.45625L21.2751 4.418Z" fill="#28293D"/>
</svg>
